<svg xmlns="http://www.w3.org/2000/svg" viewBox="0 0 1024 1024" width="128" height="128">
  <path fill="#409eff" d="M512 0C229.2 0 0 229.2 0 512s229.2 512 512 512 512-229.2 512-512S794.8 0 512 0zm259.4 600.3c-7.9 101.8-82.5 183.9-184.2 191.9-101.8 7.9-183.9-82.5-191.9-184.2-7.9-101.8 82.5-183.9 184.2-191.9 101.8-7.9 183.9 82.5 191.9 184.2z"/>
  <path fill="#fff" d="M512 256c-141.4 0-256 114.6-256 256s114.6 256 256 256 256-114.6 256-256-114.6-256-256-256zm0 416c-88.4 0-160-71.6-160-160s71.6-160 160-160 160 71.6 160 160-71.6 160-160 160z"/>
</svg> 